<svg width="37" height="35" viewBox="0 0 37 35" fill="none" xmlns="http://www.w3.org/2000/svg">
<g clip-path="url(#clip0_37_1846)">
<path d="M20.6211 19.6211C20.6211 19.6211 20.7676 19.4746 21.0605 19.1816C21.3535 18.8887 21.5 18.3281 21.5 17.5C21.5 16.6719 21.207 15.9648 20.6211 15.3789C20.0352 14.793 19.3281 14.5 18.5 14.5C17.6719 14.5 16.9648 14.793 16.3789 15.3789C15.793 15.9648 15.5 16.6719 15.5 17.5C15.5 18.3281 15.793 19.0352 16.3789 19.6211C16.9648 20.207 17.6719 20.5 18.5 20.5C19.3281 20.5 20.0352 20.207 20.6211 19.6211ZM21.7695 14.2305C21.7695 14.2305 21.9941 14.4551 22.4434 14.9043C22.8926 15.3535 23.1172 16.2188 23.1172 17.5C23.1172 18.7812 22.668 19.8711 21.7695 20.7695C20.8711 21.668 19.7812 22.1172 18.5 22.1172C17.2188 22.1172 16.1289 21.668 15.2305 20.7695C14.332 19.8711 13.8828 18.7812 13.8828 17.5C13.8828 16.2188 14.332 15.1289 15.2305 14.2305C16.1289 13.332 17.2188 12.8828 18.5 12.8828C19.7812 12.8828 20.8711 13.332 21.7695 14.2305ZM24.0664 11.9336C24.0664 11.9336 24.1191 11.9863 24.2246 12.0918C24.3301 12.1973 24.3828 12.3984 24.3828 12.6953C24.3828 12.9922 24.2773 13.2461 24.0664 13.457C23.8555 13.668 23.6016 13.7734 23.3047 13.7734C23.0078 13.7734 22.7539 13.668 22.543 13.457C22.332 13.2461 22.2266 12.9922 22.2266 12.6953C22.2266 12.3984 22.332 12.1445 22.543 11.9336C22.7539 11.7227 23.0078 11.6172 23.3047 11.6172C23.6016 11.6172 23.8555 11.7227 24.0664 11.9336ZM19.3965 10.1113C19.3965 10.1113 19.2607 10.1123 18.9893 10.1143C18.7178 10.1162 18.5547 10.1172 18.5 10.1172C18.4453 10.1172 18.1465 10.1152 17.6035 10.1113C17.0605 10.1074 16.6484 10.1074 16.3672 10.1113C16.0859 10.1152 15.709 10.127 15.2363 10.1465C14.7637 10.166 14.3613 10.2051 14.0293 10.2637C13.6973 10.3223 13.418 10.3945 13.1914 10.4805C12.8008 10.6367 12.457 10.8633 12.1602 11.1602C11.8633 11.457 11.6367 11.8008 11.4805 12.1914C11.3945 12.418 11.3223 12.6973 11.2637 13.0293C11.2051 13.3613 11.166 13.7637 11.1465 14.2363C11.127 14.709 11.1152 15.0859 11.1113 15.3672C11.1074 15.6484 11.1074 16.0605 11.1113 16.6035C11.1152 17.1465 11.1172 17.4453 11.1172 17.5C11.1172 17.5547 11.1152 17.8535 11.1113 18.3965C11.1074 18.9395 11.1074 19.3516 11.1113 19.6328C11.1152 19.9141 11.127 20.291 11.1465 20.7637C11.166 21.2363 11.2051 21.6387 11.2637 21.9707C11.3223 22.3027 11.3945 22.582 11.4805 22.8086C11.6367 23.1992 11.8633 23.543 12.1602 23.8398C12.457 24.1367 12.8008 24.3633 13.1914 24.5195C13.418 24.6055 13.6973 24.6777 14.0293 24.7363C14.3613 24.7949 14.7637 24.834 15.2363 24.8535C15.709 24.873 16.0859 24.8848 16.3672 24.8887C16.6484 24.8926 17.0605 24.8926 17.6035 24.8887C18.1465 24.8848 18.4453 24.8828 18.5 24.8828C18.5547 24.8828 18.8535 24.8848 19.3965 24.8887C19.9395 24.8926 20.3516 24.8926 20.6328 24.8887C20.9141 24.8848 21.291 24.873 21.7637 24.8535C22.2363 24.834 22.6387 24.7949 22.9707 24.7363C23.3027 24.6777 23.582 24.6055 23.8086 24.5195C24.1992 24.3633 24.543 24.1367 24.8398 23.8398C25.1367 23.543 25.3633 23.1992 25.5195 22.8086C25.6055 22.582 25.6777 22.3027 25.7363 21.9707C25.7949 21.6387 25.834 21.2363 25.8535 20.7637C25.873 20.291 25.8848 19.9141 25.8887 19.6328C25.8926 19.3516 25.8926 18.9395 25.8887 18.3965C25.8848 17.8535 25.8828 17.5547 25.8828 17.5C25.8828 17.4453 25.8848 17.1465 25.8887 16.6035C25.8926 16.0605 25.8926 15.6484 25.8887 15.3672C25.8848 15.0859 25.873 14.709 25.8535 14.2363C25.834 13.7637 25.7949 13.3613 25.7363 13.0293C25.6777 12.6973 25.6055 12.418 25.5195 12.1914C25.3633 11.8008 25.1367 11.457 24.8398 11.1602C24.543 10.8633 24.1992 10.6367 23.8086 10.4805C23.582 10.3945 23.3027 10.3223 22.9707 10.2637C22.6387 10.2051 22.2363 10.166 21.7637 10.1465C21.291 10.127 20.9141 10.1152 20.6328 10.1113C20.3516 10.1074 19.9395 10.1074 19.3965 10.1113ZM27.4414 13.7852C27.4805 14.4727 27.5 15.7109 27.5 17.5C27.5 19.2891 27.4805 20.5273 27.4414 21.2148C27.3633 22.8398 26.8789 24.0977 25.9883 24.9883C25.0977 25.8789 23.8398 26.3633 22.2148 26.4414C21.5273 26.4805 20.2891 26.5 18.5 26.5C16.7109 26.5 15.4727 26.4805 14.7852 26.4414C13.1602 26.3633 11.9023 25.8789 11.0117 24.9883C10.1211 24.0977 9.63672 22.8398 9.55859 21.2148C9.51953 20.5273 9.5 19.2891 9.5 17.5C9.5 15.7109 9.51953 14.4727 9.55859 13.7852C9.63672 12.1602 10.1211 10.9023 11.0117 10.0117C11.9023 9.12109 13.1602 8.63672 14.7852 8.55859C15.4727 8.51953 16.7109 8.5 18.5 8.5C20.2891 8.5 21.5273 8.51953 22.2148 8.55859C23.8398 8.63672 25.0977 9.12109 25.9883 10.0117C26.8789 10.9023 27.3633 12.1602 27.4414 13.7852Z" fill="white"/>
</g>
<rect x="1" y="0.5" width="35" height="34" rx="17" stroke="white"/>
<defs>
<clipPath id="clip0_37_1846">
<rect width="18" height="21" fill="white" transform="matrix(1 0 0 -1 9.5 28)"/>
</clipPath>
</defs>
</svg>
