<svg width="38" height="35" viewBox="0 0 38 35" fill="none" xmlns="http://www.w3.org/2000/svg">
<path d="M27.4688 11.7812C26.9453 12.5469 26.3125 13.1992 25.5703 13.7383C25.5781 13.8477 25.582 14.0117 25.582 14.2305C25.582 15.2461 25.4336 16.2598 25.1367 17.2715C24.8398 18.2832 24.3887 19.2539 23.7832 20.1836C23.1777 21.1133 22.457 21.9355 21.6211 22.6504C20.7852 23.3652 19.7773 23.9355 18.5977 24.3613C17.418 24.7871 16.1562 25 14.8125 25C12.6953 25 10.7578 24.4336 9 23.3008C9.27344 23.332 9.57812 23.3477 9.91406 23.3477C11.6719 23.3477 13.2383 22.8086 14.6133 21.7305C13.793 21.7148 13.0586 21.4629 12.4102 20.9746C11.7617 20.4863 11.3164 19.8633 11.0742 19.1055C11.332 19.1445 11.5703 19.1641 11.7891 19.1641C12.125 19.1641 12.457 19.1211 12.7852 19.0352C11.9102 18.8555 11.1855 18.4199 10.6113 17.7285C10.0371 17.0371 9.75 16.2344 9.75 15.3203V15.2734C10.2812 15.5703 10.8516 15.7305 11.4609 15.7539C10.9453 15.4102 10.5352 14.9609 10.2305 14.4062C9.92578 13.8516 9.77344 13.25 9.77344 12.6016C9.77344 11.9141 9.94531 11.2773 10.2891 10.6914C11.2344 11.8555 12.3848 12.7871 13.7402 13.4863C15.0957 14.1855 16.5469 14.5742 18.0938 14.6523C18.0312 14.3555 18 14.0664 18 13.7852C18 12.7383 18.3691 11.8457 19.1074 11.1074C19.8457 10.3691 20.7383 10 21.7852 10C22.8789 10 23.8008 10.3984 24.5508 11.1953C25.4023 11.0312 26.2031 10.7266 26.9531 10.2812C26.6641 11.1797 26.1094 11.875 25.2891 12.3672C26.0156 12.2891 26.7422 12.0938 27.4688 11.7812Z" fill="white"/>
<rect x="0.5" y="0.5" width="36.5" height="34" rx="17" stroke="white"/>
</svg>
