<svg width="35" height="34" viewBox="0 0 35 34" fill="none" xmlns="http://www.w3.org/2000/svg">
<g clip-path="url(#clip0_37_1849)">
<path d="M19.5625 20.5781V23.0508C19.5625 23.5742 19.4102 23.8359 19.1055 23.8359C18.9258 23.8359 18.75 23.75 18.5781 23.5781V20.0508C18.75 19.8789 18.9258 19.793 19.1055 19.793C19.4102 19.793 19.5625 20.0547 19.5625 20.5781ZM23.5234 20.5898V21.1289H22.4688V20.5898C22.4688 20.0586 22.6445 19.793 22.9961 19.793C23.3477 19.793 23.5234 20.0586 23.5234 20.5898ZM12.2031 18.0352H13.457V16.9336H9.80078V18.0352H11.0312V24.7031H12.2031V18.0352ZM15.5781 24.7031H16.6211V18.9141H15.5781V23.3438C15.3438 23.6719 15.1211 23.8359 14.9102 23.8359C14.7695 23.8359 14.6875 23.7539 14.6641 23.5898C14.6562 23.5664 14.6523 23.4297 14.6523 23.1797V18.9141H13.6094V23.4961C13.6094 23.8789 13.6406 24.1641 13.7031 24.3516C13.7969 24.6406 14.0234 24.7852 14.3828 24.7852C14.7578 24.7852 15.1562 24.5469 15.5781 24.0703V24.7031ZM20.6055 22.9688V20.6602C20.6055 20.0898 20.5703 19.7031 20.5 19.5C20.3672 19.0625 20.0898 18.8438 19.668 18.8438C19.2773 18.8438 18.9141 19.0547 18.5781 19.4766V16.9336H17.5352V24.7031H18.5781V24.1406C18.9297 24.5703 19.293 24.7852 19.668 24.7852C20.0898 24.7852 20.3672 24.5703 20.5 24.1406C20.5703 23.9297 20.6055 23.5391 20.6055 22.9688ZM24.5664 22.8516V22.6992H23.5C23.5 23.0977 23.4922 23.3359 23.4766 23.4141C23.4219 23.6953 23.2656 23.8359 23.0078 23.8359C22.6484 23.8359 22.4688 23.5664 22.4688 23.0273V22.0078H24.5664V20.8008C24.5664 20.1836 24.4609 19.7305 24.25 19.4414C23.9453 19.043 23.5312 18.8438 23.0078 18.8438C22.4766 18.8438 22.0586 19.043 21.7539 19.4414C21.5352 19.7305 21.4258 20.1836 21.4258 20.8008V22.8281C21.4258 23.4453 21.5391 23.8984 21.7656 24.1875C22.0703 24.5859 22.4922 24.7852 23.0312 24.7852C23.5938 24.7852 24.0156 24.5781 24.2969 24.1641C24.4375 23.9531 24.5195 23.7422 24.543 23.5312C24.5586 23.4609 24.5664 23.2344 24.5664 22.8516ZM17.4414 12.1523V9.69141C17.4414 9.15234 17.2734 8.88281 16.9375 8.88281C16.6016 8.88281 16.4336 9.15234 16.4336 9.69141V12.1523C16.4336 12.6992 16.6016 12.9727 16.9375 12.9727C17.2734 12.9727 17.4414 12.6992 17.4414 12.1523ZM25.8672 20.9531C25.8672 22.7812 25.7656 24.1484 25.5625 25.0547C25.4531 25.5156 25.2266 25.9023 24.8828 26.2148C24.5391 26.5273 24.1406 26.707 23.6875 26.7539C22.25 26.918 20.082 27 17.1836 27C14.2852 27 12.1172 26.918 10.6797 26.7539C10.2266 26.707 9.82617 26.5273 9.47852 26.2148C9.13086 25.9023 8.90625 25.5156 8.80469 25.0547C8.60156 24.1797 8.5 22.8125 8.5 20.9531C8.5 19.125 8.60156 17.7578 8.80469 16.8516C8.91406 16.3906 9.14062 16.0039 9.48438 15.6914C9.82812 15.3789 10.2305 15.1953 10.6914 15.1406C12.1211 14.9844 14.2852 14.9062 17.1836 14.9062C20.082 14.9062 22.25 14.9844 23.6875 15.1406C24.1406 15.1953 24.541 15.3789 24.8887 15.6914C25.2363 16.0039 25.4609 16.3906 25.5625 16.8516C25.7656 17.7266 25.8672 19.0938 25.8672 20.9531ZM14.1719 6H15.3672L13.9492 10.6758V13.8516H12.7773V10.6758C12.668 10.0977 12.4297 9.26953 12.0625 8.19141C11.7734 7.38672 11.5195 6.65625 11.3008 6H12.543L13.375 9.08203L14.1719 6ZM18.5078 9.90234V11.9531C18.5078 12.5859 18.3984 13.0469 18.1797 13.3359C17.8828 13.7344 17.4688 13.9336 16.9375 13.9336C16.4141 13.9336 16.0039 13.7344 15.707 13.3359C15.4883 13.0391 15.3789 12.5781 15.3789 11.9531V9.90234C15.3789 9.27734 15.4883 8.82031 15.707 8.53125C16.0039 8.13281 16.4141 7.93359 16.9375 7.93359C17.4688 7.93359 17.8828 8.13281 18.1797 8.53125C18.3984 8.82031 18.5078 9.27734 18.5078 9.90234ZM22.4336 8.00391V13.8516H21.3672V13.207C20.9531 13.6914 20.5508 13.9336 20.1602 13.9336C19.8008 13.9336 19.5703 13.7891 19.4688 13.5C19.4062 13.3125 19.375 13.0195 19.375 12.6211V8.00391H20.4414V12.3047C20.4414 12.5625 20.4453 12.6992 20.4531 12.7148C20.4766 12.8867 20.5586 12.9727 20.6992 12.9727C20.9102 12.9727 21.1328 12.8047 21.3672 12.4688V8.00391H22.4336Z" fill="white"/>
</g>
<rect x="1" y="0.5" width="33" height="33" rx="16.5" stroke="white"/>
<defs>
<clipPath id="clip0_37_1849">
<rect width="18" height="21" fill="white" transform="matrix(1 0 0 -1 8.5 27)"/>
</clipPath>
</defs>
</svg>
